<svg width="9" height="5" viewBox="0 0 9 5" fill="none" xmlns="http://www.w3.org/2000/svg">
<path d="M8.27009 0.502223C8.32589 0.558027 8.3538 0.622201 8.3538 0.694745C8.3538 0.76729 8.32589 0.831464 8.27009 0.887268L4.36942 4.78794C4.31362 4.84374 4.24944 4.87164 4.1769 4.87164C4.10435 4.87164 4.04018 4.84374 3.98438 4.78794L0.0837054 0.887268C0.0279018 0.831464 5.58794e-08 0.76729 5.58794e-08 0.694745C5.58794e-08 0.622201 0.0279018 0.558027 0.0837054 0.502223L0.502232 0.0836961C0.558036 0.0278928 0.62221 -8.91089e-06 0.694754 -8.91089e-06C0.767299 -8.91089e-06 0.831473 0.0278928 0.887277 0.0836961L4.1769 3.37332L7.46652 0.0836961C7.52232 0.0278928 7.5865 -8.91089e-06 7.65904 -8.91089e-06C7.73159 -8.91089e-06 7.79576 0.0278928 7.85156 0.0836961L8.27009 0.502223Z" fill="white"/>
</svg>
