<svg aria-hidden="true" style="position: absolute; width: 0; height: 0; overflow: hidden;" version="1.1" xmlns="http://www.w3.org/2000/svg" xmlns:xlink="http://www.w3.org/1999/xlink">
<defs>
<symbol id="down_arrow" viewBox="0 0 58 32">
<path d="M52.929 3.214c0.357 0.357 0.536 0.768 0.536 1.232s-0.179 0.875-0.536 1.232l-24.964 24.964c-0.357 0.357-0.768 0.536-1.232 0.536s-0.875-0.179-1.232-0.536l-24.964-24.964c-0.357-0.357-0.536-0.768-0.536-1.232s0.179-0.875 0.536-1.232l2.679-2.679c0.357-0.357 0.768-0.536 1.232-0.536s0.875 0.179 1.232 0.536l21.054 21.054 21.054-21.054c0.357-0.357 0.768-0.536 1.232-0.536s0.875 0.179 1.232 0.536l2.679 2.679z"></path>
</symbol>
<symbol id="clock" viewBox="0 0 32 32">
<path d="M16 29.661c7.46 0 13.661-6.188 13.661-13.661 0-7.46-6.214-13.661-13.674-13.661-7.473 0-13.647 6.201-13.647 13.661 0 7.473 6.188 13.661 13.661 13.661zM16 27.384c-6.321 0-11.371-5.063-11.371-11.384 0-6.308 5.036-11.384 11.357-11.384 6.308 0 11.384 5.076 11.397 11.384 0.013 6.321-5.076 11.384-11.384 11.384zM8.982 17.446h7.004c0.522 0 0.938-0.402 0.938-0.938v-9.027c0-0.522-0.415-0.924-0.938-0.924s-0.924 0.402-0.924 0.924v8.103h-6.080c-0.522 0-0.924 0.402-0.924 0.924 0 0.536 0.402 0.938 0.924 0.938z"></path>
</symbol>
<symbol id="inbox" viewBox="0 0 32 32">
<path d="M7.772 6.807c0.452-0.903 1.375-1.474 2.385-1.474h11.685c1.010 0 1.933 0.571 2.385 1.474l4.683 9.367c0.278 0.555 0.422 1.168 0.422 1.789v7.371c0 1.473-1.194 2.667-2.667 2.667h-21.333c-1.473 0-2.667-1.194-2.667-2.667v-7.371c0-0.621 0.145-1.233 0.422-1.789l4.683-9.367zM21.843 8h-11.685l-4.664 9.333h4.507c1.105 0 2 0.895 2 2v1.333c0 0.368 0.298 0.667 0.667 0.667h6.667c0.368 0 0.667-0.299 0.667-0.667v-1.333c0-1.105 0.895-2 2-2h4.507l-4.664-9.333z"></path>
</symbol>
<symbol id="phone" viewBox="0 0 32 32">
<path d="M3.633 2.987c-1.275 1.080-2.079 2.681-2.079 4.471 0 0.376 0.035 0.743 0.103 1.099l-0.006-0.037c1.315 5.528 4.042 10.292 7.779 14.051l-0.001-0.001c3.757 3.736 8.522 6.463 13.851 7.737l0.2 0.040c0.34 0.091 0.731 0.143 1.134 0.144h0c1.754-0.106 3.304-0.903 4.395-2.119l0.005-0.006c0.657-0.556 1.104-1.341 1.217-2.231l0.002-0.017 0.421-3.060c0.008-0.058 0.013-0.125 0.013-0.193 0-0.645-0.433-1.188-1.025-1.354l-0.010-0.002-5.957-1.633c-0.111-0.032-0.239-0.050-0.371-0.050-0.473 0-0.891 0.233-1.146 0.591l-0.003 0.004-1.565 2.215c-0.154 0.206-0.397 0.338-0.671 0.338-0.11 0-0.216-0.021-0.312-0.060l0.006 0.002c-2.356-1.159-4.363-2.656-6.051-4.456l-0.010-0.011c-1.811-1.698-3.308-3.705-4.413-5.941l-0.054-0.121c-0.037-0.091-0.058-0.196-0.058-0.306 0-0.274 0.132-0.517 0.336-0.669l0.002-0.002 2.328-1.564c0.363-0.258 0.597-0.677 0.597-1.15 0-0.132-0.018-0.26-0.052-0.381l0.002 0.010-1.637-5.956c-0.168-0.601-0.711-1.035-1.356-1.035-0.068 0-0.136 0.005-0.201 0.014l0.008-0.001-3.173 0.421c-0.907 0.115-1.692 0.562-2.244 1.214l-0.004 0.005zM4.673 3.831c0.354-0.413 0.856-0.689 1.423-0.746l0.009-0.001 3.143-0.417c0.033 0.001 0.060 0.023 0.069 0.053l0 0.001 1.635 5.957c0.002 0.008 0.003 0.016 0.003 0.025 0 0.013-0.002 0.025-0.006 0.037l0-0.001-2.377 1.6c-0.536 0.4-0.879 1.033-0.879 1.746 0 0.284 0.055 0.556 0.154 0.805l-0.005-0.015c1.221 2.538 2.821 4.698 4.754 6.506l0.012 0.011c1.819 1.946 3.979 3.546 6.389 4.711l0.129 0.056c0.234 0.095 0.505 0.149 0.789 0.149 0.001 0 0.003 0 0.004 0h-0c0.721-0.004 1.36-0.356 1.756-0.897l0.004-0.006 1.564-2.216c0.013-0.018 0.034-0.030 0.057-0.030 0.002 0 0.004 0 0.005 0h-0l0.017 0.001 5.956 1.635c0.031 0.009 0.054 0.037 0.054 0.071 0 0.003-0 0.006-0.001 0.010l0-0-0.415 3.015c-0.057 0.578-0.334 1.082-0.745 1.434l-0.003 0.002-0.099 0.097c-0.863 0.97-2.075 1.613-3.438 1.732l-0.020 0.001c-0.286-0-0.564-0.037-0.828-0.106l0.023 0.005c-5.289-1.251-9.848-3.858-13.441-7.434l0.001 0.001c-3.571-3.59-6.175-8.146-7.386-13.24l-0.038-0.19c-0.033-0.207-0.051-0.446-0.051-0.689 0-1.435 0.652-2.717 1.676-3.567l0.008-0.006z"></path>
</symbol>
<symbol id="magnifying-glass" viewBox="0 0 32 32">
<path d="M13 24c1.445 0 2.875-0.285 4.209-0.837s2.547-1.363 3.569-2.384c1.021-1.021 1.832-2.234 2.384-3.569s0.837-2.765 0.837-4.21-0.285-2.875-0.837-4.21c-0.553-1.335-1.363-2.547-2.384-3.569s-2.234-1.832-3.569-2.384-2.765-0.837-4.21-0.837c-2.917 0-5.715 1.159-7.778 3.222s-3.222 4.861-3.222 7.778c0 2.917 1.159 5.715 3.222 7.778s4.861 3.222 7.778 3.222zM26 13c0 3.448-1.37 6.754-3.808 9.192s-5.745 3.808-9.192 3.808-6.754-1.37-9.192-3.808c-2.438-2.438-3.808-5.745-3.808-9.192s1.37-6.754 3.808-9.192c2.438-2.438 5.745-3.808 9.192-3.808s6.754 1.37 9.192 3.808c2.438 2.438 3.808 5.745 3.808 9.192z"></path>
<path d="M20.688 23.484c0.060 0.080 0.124 0.156 0.196 0.23l7.7 7.7c0.375 0.375 0.884 0.586 1.414 0.586s1.039-0.21 1.415-0.585c0.375-0.375 0.586-0.884 0.586-1.414s-0.21-1.039-0.585-1.415l-7.7-7.7c-0.072-0.072-0.148-0.139-0.23-0.2-0.785 1.070-1.727 2.014-2.796 2.8v-0.002z"></path>
<path d="M13 6c0.265 0 0.52 0.105 0.707 0.293s0.293 0.442 0.293 0.707v5h5c0.265 0 0.52 0.105 0.707 0.293s0.293 0.442 0.293 0.707c0 0.265-0.105 0.52-0.293 0.707s-0.442 0.293-0.707 0.293h-5v5c0 0.265-0.105 0.52-0.293 0.707s-0.442 0.293-0.707 0.293c-0.265 0-0.52-0.105-0.707-0.293s-0.293-0.442-0.293-0.707v-5h-5c-0.265 0-0.52-0.105-0.707-0.293s-0.293-0.442-0.293-0.707c0-0.265 0.105-0.52 0.293-0.707s0.442-0.293 0.707-0.293h5v-5c0-0.265 0.105-0.52 0.293-0.707s0.442-0.293 0.707-0.293z"></path>
</symbol>
<symbol id="right_arrow" viewBox="0 0 32 32">
<path d="M24.188 15.594c0-0.25-0.125-0.531-0.313-0.719l-14.563-14.563c-0.188-0.188-0.469-0.313-0.719-0.313s-0.531 0.125-0.719 0.313l-1.563 1.563c-0.188 0.188-0.313 0.469-0.313 0.719s0.125 0.531 0.313 0.719l12.281 12.281-12.281 12.281c-0.188 0.187-0.313 0.469-0.313 0.719 0 0.281 0.125 0.531 0.313 0.719l1.563 1.563c0.188 0.187 0.469 0.312 0.719 0.312s0.531-0.125 0.719-0.312l14.563-14.563c0.188-0.187 0.313-0.469 0.313-0.719z"></path>
</symbol>
<symbol id="left_arrow" viewBox="0 0 32 32">
<path d="M24.188 2.594c0-0.281-0.125-0.531-0.313-0.719l-1.563-1.563c-0.187-0.188-0.469-0.313-0.719-0.313s-0.531 0.125-0.719 0.313l-14.563 14.563c-0.188 0.187-0.313 0.469-0.313 0.719s0.125 0.531 0.313 0.719l14.563 14.563c0.188 0.187 0.469 0.312 0.719 0.312s0.531-0.125 0.719-0.312l1.563-1.563c0.188-0.187 0.313-0.469 0.313-0.719s-0.125-0.531-0.313-0.719l-12.281-12.281 12.281-12.281c0.188-0.188 0.313-0.469 0.313-0.719z"></path>
</symbol>
<symbol id="twitter" viewBox="0 0 39 32">
<path d="M35.308 8c0.051 0.205 0.077 0.538 0.077 1 0 2.718-0.513 5.436-1.538 8.154-1.026 2.667-2.487 5.128-4.384 7.385-1.846 2.205-4.256 4-7.231 5.384s-6.256 2.077-9.846 2.077c-4.513 0-8.641-1.205-12.385-3.616 0.564 0.051 1.205 0.077 1.923 0.077 3.744 0 7.103-1.154 10.077-3.462-1.795 0-3.385-0.513-4.769-1.538-1.333-1.077-2.256-2.41-2.769-4 0.513 0.051 1 0.077 1.462 0.077 0.718 0 1.436-0.077 2.154-0.231-1.231-0.256-2.333-0.769-3.308-1.538s-1.744-1.692-2.308-2.769c-0.564-1.128-0.846-2.333-0.846-3.615v-0.154c1.128 0.667 2.333 1.026 3.615 1.077-2.41-1.641-3.615-3.897-3.615-6.769 0-1.436 0.385-2.795 1.154-4.077 2 2.513 4.436 4.513 7.308 6 2.923 1.487 6.026 2.308 9.308 2.462-0.103-0.615-0.154-1.231-0.154-1.846 0-2.205 0.769-4.103 2.308-5.692 1.59-1.59 3.487-2.385 5.692-2.385 2.359 0 4.333 0.846 5.923 2.538 1.846-0.359 3.564-1 5.154-1.923-0.615 1.897-1.795 3.385-3.538 4.462 1.538-0.205 3.077-0.641 4.615-1.308-1.128 1.641-2.487 3.051-4.077 4.231z"></path>
</symbol>
<symbol id="instagram" viewBox="0 0 32 32">
<path d="M10.143 10.214c1.619-1.619 3.571-2.429 5.857-2.429s4.214 0.81 5.786 2.429c1.619 1.571 2.429 3.5 2.429 5.786s-0.81 4.238-2.429 5.857c-1.571 1.571-3.5 2.357-5.786 2.357s-4.238-0.786-5.857-2.357c-1.571-1.619-2.357-3.571-2.357-5.857s0.786-4.214 2.357-5.786zM12.214 19.786c1.048 1.048 2.31 1.571 3.786 1.571s2.738-0.524 3.786-1.571c1.048-1.048 1.571-2.31 1.571-3.786s-0.524-2.738-1.571-3.786c-1.048-1.048-2.31-1.571-3.786-1.571s-2.738 0.524-3.786 1.571c-1.048 1.048-1.571 2.31-1.571 3.786s0.524 2.738 1.571 3.786zM25.857 6.143c0.381 0.333 0.571 0.762 0.571 1.286s-0.19 0.976-0.571 1.357c-0.333 0.381-0.762 0.571-1.286 0.571s-0.976-0.19-1.357-0.571c-0.381-0.381-0.571-0.833-0.571-1.357s0.19-0.952 0.571-1.286c0.381-0.381 0.833-0.571 1.357-0.571s0.952 0.19 1.286 0.571zM31.929 9.429c0.048 1.286 0.071 3.476 0.071 6.571s-0.024 5.286-0.071 6.571c-0.143 2.905-1.024 5.167-2.643 6.786-1.571 1.571-3.81 2.405-6.714 2.5-1.286 0.095-3.476 0.143-6.571 0.143s-5.286-0.048-6.571-0.143c-2.905-0.143-5.143-1-6.714-2.571-0.619-0.571-1.119-1.238-1.5-2s-0.667-1.5-0.857-2.214c-0.143-0.715-0.214-1.548-0.214-2.5-0.095-1.286-0.143-3.476-0.143-6.571s0.048-5.31 0.143-6.643c0.143-2.857 1-5.071 2.571-6.643 1.571-1.619 3.81-2.5 6.714-2.643 1.286-0.048 3.476-0.071 6.571-0.071s5.286 0.024 6.571 0.071c2.905 0.143 5.143 1.024 6.714 2.643 1.619 1.571 2.5 3.81 2.643 6.714zM28.5 25.429c0.143-0.381 0.262-0.857 0.357-1.429 0.095-0.619 0.167-1.333 0.214-2.143 0.048-0.857 0.071-1.548 0.071-2.071s0-1.262 0-2.214c0-0.952 0-1.476 0-1.571 0-0.143 0-0.667 0-1.571 0-0.952 0-1.69 0-2.214s-0.024-1.19-0.071-2c-0.048-0.857-0.119-1.571-0.214-2.143-0.095-0.619-0.214-1.119-0.357-1.5-0.571-1.476-1.595-2.5-3.072-3.071-0.381-0.143-0.881-0.262-1.5-0.357-0.571-0.095-1.286-0.167-2.143-0.214-0.81-0.048-1.476-0.071-2-0.071-0.476 0-1.214 0-2.214 0-0.952 0-1.476 0-1.571 0s-0.619 0-1.571 0c-0.952 0-1.69 0-2.214 0s-1.214 0.024-2.071 0.071c-0.81 0.048-1.524 0.119-2.143 0.214-0.571 0.095-1.048 0.214-1.429 0.357-1.476 0.571-2.5 1.595-3.071 3.071-0.143 0.381-0.262 0.881-0.357 1.5-0.095 0.571-0.167 1.286-0.214 2.143-0.048 0.81-0.071 1.476-0.071 2 0 0.476 0 1.214 0 2.214 0 0.952 0 1.476 0 1.571 0 0.19 0 0.643 0 1.357 0 0.667 0 1.238 0 1.714 0 0.429 0 1 0 1.714 0.048 0.714 0.095 1.333 0.143 1.857 0.048 0.476 0.119 0.976 0.214 1.5s0.19 0.952 0.286 1.286c0.619 1.476 1.643 2.5 3.071 3.072 0.381 0.143 0.857 0.262 1.429 0.357 0.619 0.095 1.333 0.167 2.143 0.214 0.857 0.048 1.524 0.071 2 0.071 0.524 0 1.262 0 2.214 0 1 0 1.548 0 1.643 0 0.143 0 0.667 0 1.571 0 0.952 0 1.69 0 2.214 0s1.19-0.024 2-0.071c0.857-0.048 1.572-0.119 2.143-0.214 0.619-0.095 1.119-0.214 1.5-0.357 1.476-0.619 2.5-1.643 3.072-3.072z"></path>
</symbol>
<symbol id="facebook" viewBox="0 0 18 32">
<path d="M16 18h-4.688v14h-6.25v-14h-5.063v-5.813h5.063v-4.375c0-1.667 0.313-3.083 0.938-4.25s1.5-2.042 2.625-2.625c1.167-0.625 2.5-0.938 4-0.938 0.667 0 1.375 0.042 2.125 0.125 0.75 0.042 1.333 0.104 1.75 0.188l0.625 0.063v4.938h-2.5c-1.167 0-2.021 0.313-2.563 0.938-0.5 0.583-0.75 1.313-0.75 2.188v3.75h5.563l-0.875 5.813z"></path>
</symbol>
<symbol id="location" viewBox="0 0 32 32">
<path d="M16 0c-5.523 0-10 4.477-10 10 0 10 10 22 10 22s10-12 10-22c0-5.523-4.477-10-10-10zM16 16c-3.314 0-6-2.686-6-6s2.686-6 6-6 6 2.686 6 6-2.686 6-6 6z"></path>
</symbol>
</defs>
</svg>
